<svg xmlns="http://www.w3.org/2000/svg" width="424" height="424" viewBox="0 0 424 424"><rect width="100%" height="100%" fill="#DDDDDD"/><path fill="#999999" d="M92.93 217.21h12.32v-13.24q0-1.88.25-4.15l-12.57 17.39Zm18.34 0h5.09v4q0 .56-.36.97-.36.41-1.04.41h-3.69v9.88h-6.02v-9.88H88.17q-.7 0-1.23-.44-.54-.43-.68-1.08l-.72-3.5 19.18-25.62h6.55v25.26Zm23.6 8.82h10.39q1.12 0 1.78.63.66.63.66 1.67v4.14h-27.78v-2.3q0-.7.29-1.47.3-.77.94-1.38L133.44 215q1.54-1.57 2.76-3 1.22-1.43 2.03-2.83.81-1.4 1.25-2.84.43-1.44.43-3.04 0-1.45-.42-2.56-.42-1.1-1.19-1.86t-1.85-1.13q-1.07-.38-2.42-.38-1.23 0-2.28.35-1.05.35-1.86.98t-1.37 1.47q-.56.84-.84 1.85-.48 1.28-1.24 1.7-.75.42-2.18.2l-3.64-.64q.42-2.92 1.62-5.11 1.21-2.2 3.01-3.67 1.81-1.47 4.15-2.21 2.34-.75 5.02-.75 2.8 0 5.13.83 2.32.83 3.97 2.34 1.66 1.51 2.58 3.64.92 2.13.92 4.73 0 2.24-.65 4.14-.66 1.91-1.77 3.64-1.1 1.74-2.59 3.36-1.48 1.63-3.11 3.31l-9.12 9.32q1.31-.39 2.61-.6 1.31-.21 2.48-.21Zm23.02-8.82h12.32v-13.24q0-1.88.25-4.15l-12.57 17.39Zm18.34 0h5.09v4q0 .56-.36.97-.36.41-1.04.41h-3.69v9.88h-6.02v-9.88h-17.08q-.7 0-1.23-.44-.54-.43-.68-1.08l-.72-3.5 19.18-25.62h6.55v25.26Zm49.59 5.99-3.67 3.61-9.49-9.49-9.58 9.55-3.67-3.61 9.58-9.61-9.13-9.12 3.64-3.64 9.13 9.12 9.07-9.07 3.7 3.64-9.1 9.1 9.52 9.52Zm24.24-5.99h12.32v-13.24q0-1.88.26-4.15l-12.58 17.39Zm18.34 0h5.1v4q0 .56-.36.97-.37.41-1.04.41h-3.7v9.88h-6.02v-9.88H245.3q-.7 0-1.23-.44-.53-.43-.67-1.08l-.73-3.5 19.18-25.62h6.55v25.26Zm23.61 8.82h10.39q1.12 0 1.77.63.66.63.66 1.67v4.14h-27.77v-2.3q0-.7.29-1.47t.94-1.38L290.58 215q1.54-1.57 2.76-3 1.22-1.43 2.03-2.83.81-1.4 1.24-2.84.44-1.44.44-3.04 0-1.45-.42-2.56-.42-1.1-1.19-1.86t-1.85-1.13q-1.08-.38-2.42-.38-1.23 0-2.28.35-1.05.35-1.87.98-.81.63-1.37 1.47t-.84 1.85q-.47 1.28-1.23 1.7-.76.42-2.18.2l-3.64-.64q.42-2.92 1.62-5.11 1.2-2.2 3.01-3.67 1.81-1.47 4.14-2.21 2.34-.75 5.03-.75 2.8 0 5.12.83 2.33.83 3.98 2.34 1.65 1.51 2.58 3.64.92 2.13.92 4.73 0 2.24-.66 4.14-.66 1.91-1.76 3.64-1.11 1.74-2.59 3.36-1.49 1.63-3.11 3.31l-9.13 9.32q1.32-.39 2.62-.6 1.3-.21 2.48-.21Zm23.01-8.82h12.32v-13.24q0-1.88.26-4.15l-12.58 17.39Zm18.34 0h5.1v4q0 .56-.36.97-.37.41-1.04.41h-3.7v9.88h-6.02v-9.88h-17.08q-.7 0-1.23-.44-.53-.43-.67-1.08l-.73-3.5 19.18-25.62h6.55v25.26Z"/></svg>