<svg xmlns="http://www.w3.org/2000/svg" width="471" height="512" viewBox="0 0 471 512"><rect width="100%" height="100%" fill="#DDDDDD"/><path fill="#999999" d="M102.195 261.605h13.86v-14.9q0-2.11.28-4.66l-14.14 19.56Zm20.63 0h5.73v4.51q0 .63-.4 1.08-.41.46-1.17.46h-4.16v11.12h-6.77v-11.12h-19.22q-.78 0-1.38-.49-.6-.49-.76-1.21l-.82-3.94 21.58-28.82h7.37v28.41Zm10.27-28.38h31.47v3.37q0 1.51-.32 2.44-.31.93-.63 1.56l-17.26 35.53q-.53 1.11-1.51 1.88-.98.77-2.61.77h-5.64l17.61-34.81q.59-1.07 1.18-1.97.58-.89 1.3-1.71h-21.79q-.73 0-1.26-.54-.54-.53-.54-1.26v-5.26Zm58.02 39.72h8.19v5.83h-25.2v-5.83h9.23v-26.55q0-1.58.1-3.25l-6.55 5.48q-.57.45-1.12.56-.55.11-1.04.01-.49-.09-.87-.33-.38-.24-.57-.52l-2.45-3.37 13.89-11.81h6.39v39.78Zm60.58-4.6-4.13 4.07-10.68-10.68-10.77 10.74-4.13-4.06 10.78-10.81-10.27-10.27 4.09-4.09 10.27 10.27 10.21-10.21 4.16 4.1-10.24 10.23 10.71 10.71Zm33.1-28.06-1.6 9.48q1.51-.32 2.9-.46 1.38-.14 2.67-.14 3.59 0 6.33 1.07 2.75 1.07 4.6 2.96 1.86 1.89 2.81 4.43.94 2.53.94 5.46 0 3.63-1.27 6.62-1.28 2.99-3.55 5.12-2.27 2.12-5.37 3.29-3.1 1.16-6.75 1.16-2.15 0-4.07-.44-1.92-.44-3.6-1.18-1.69-.74-3.12-1.7-1.44-.96-2.57-2.03l2.39-3.31q.76-1.07 1.99-1.07.79 0 1.6.5.82.51 1.88 1.11 1.05.6 2.49 1.1 1.43.5 3.45.5 2.14 0 3.78-.69 1.63-.69 2.72-1.94 1.09-1.24 1.64-2.96.55-1.71.55-3.73 0-3.72-2.16-5.81-2.16-2.1-6.38-2.1-3.24 0-6.64 1.2l-4.85-1.39 3.78-22.11h22.49v3.31q0 1.67-1.04 2.71t-3.53 1.04h-12.51Zm46.56 32.66h8.19v5.83h-25.2v-5.83h9.23v-26.55q0-1.58.1-3.25l-6.56 5.48q-.56.45-1.11.56-.56.11-1.04.01-.49-.09-.87-.33-.38-.24-.57-.52l-2.45-3.37 13.89-11.81h6.39v39.78Zm31.34-1.42h11.69q1.26 0 2 .71t.74 1.88v4.66h-31.25v-2.58q0-.79.33-1.66.33-.86 1.06-1.56l13.83-13.86q1.73-1.76 3.1-3.37 1.37-1.6 2.28-3.18.92-1.57 1.41-3.2.48-1.62.48-3.41 0-1.64-.47-2.89-.47-1.24-1.34-2.09-.86-.85-2.08-1.28-1.21-.42-2.72-.42-1.39 0-2.57.39-1.18.4-2.09 1.11-.92.7-1.55 1.65-.63.94-.94 2.08-.54 1.45-1.39 1.92-.85.47-2.45.22l-4.1-.72q.47-3.28 1.83-5.75 1.35-2.48 3.38-4.13 2.04-1.65 4.67-2.49 2.63-.83 5.65-.83 3.15 0 5.76.93 2.62.93 4.48 2.63 1.86 1.7 2.9 4.09 1.03 2.4 1.03 5.32 0 2.53-.74 4.67t-1.98 4.09q-1.24 1.96-2.91 3.78-1.67 1.83-3.5 3.72l-10.27 10.49q1.48-.44 2.95-.68 1.46-.24 2.78-.24Z"/></svg>