<?xml version="1.0"?>
<svg xmlns="http://www.w3.org/2000/svg" data-name="Layer 1" id="Layer_1" viewBox="0 0 128 128"><title/><path d="M8.75781,14.16449A3.01339,3.01339,0,0,0,6,17.155v4.12549a2,2,0,1,0,4,0v-3.1908A79.25985,79.25985,0,0,1,62.74121,35.55756a1.99818,1.99818,0,0,0,2.51758,0A79.284,79.284,0,0,1,118,18.08972v3.1908a2,2,0,1,0,4,0V17.155a3.01329,3.01329,0,0,0-2.75684-2.99054A83.201,83.201,0,0,0,64,31.44971,83.21485,83.21485,0,0,0,8.75781,14.16449Z"/><path d="M62,4.00024V14.0014a2,2,0,1,0,4,0V4.00024a2,2,0,1,0-4,0Z"/><path d="M72.21094,9.10626l-2,4.00049A2.00027,2.00027,0,0,0,73.78906,14.896l2-4.00043a2.00029,2.00029,0,1,0-3.57812-1.78931Z"/><path d="M53.10547,8.21167a2.00109,2.00109,0,0,0-.89453,2.6839l2,4.00043a2.00027,2.00027,0,1,0,3.57813-1.78925l-2-4.00049A1.9998,1.9998,0,0,0,53.10547,8.21167Z"/><path d="M122.16,27.03c-10.14545-.252-35.18286.7829-56.16,14.89563v83.098c3.89081-2.767,23.26184-15.1571,55.64-13.16364a5.92866,5.92866,0,0,0,4.45-1.62,6.09277,6.09277,0,0,0,1.91-4.41V33.03A5.96551,5.96551,0,0,0,122.16,27.03ZM109.11,95.51A62.00536,62.00536,0,0,0,82,103.25a2.01838,2.01838,0,0,1-1,.26,1.99955,1.99955,0,0,1-1-3.73,66.13568,66.13568,0,0,1,28.89-8.27,2.003,2.003,0,1,1,.22,4Zm0-12A62.11011,62.11011,0,0,0,82,91.24a1.93025,1.93025,0,0,1-1,.27,1.99955,1.99955,0,0,1-1-3.73,66.13568,66.13568,0,0,1,28.89-8.27,2.003,2.003,0,1,1,.22,4Zm0-12A62.11011,62.11011,0,0,0,82,79.24a2.03089,2.03089,0,0,1-1,.27A2.00692,2.00692,0,0,1,80,75.77,66.24035,66.24035,0,0,1,108.89,67.51a2.003,2.003,0,1,1,.22,4Zm0-12.01A62.0062,62.0062,0,0,0,82,67.24a2.03089,2.03089,0,0,1-1,.27A2.00692,2.00692,0,0,1,80,63.77,66.24035,66.24035,0,0,1,108.89,55.51,2.0208,2.0208,0,0,1,111,57.39,1.99619,1.99619,0,0,1,109.11,59.5Zm0-12A62.0062,62.0062,0,0,0,82,55.24a2.03089,2.03089,0,0,1-1,.27A2.00692,2.00692,0,0,1,80,51.77,65.96613,65.96613,0,0,1,108.89,43.51a1.998,1.998,0,1,1,.22,3.99Z"/><path d="M6.36,111.86c32.38629-1.98444,51.75012,10.39795,55.64,13.16376V41.9256C41.02289,27.81287,15.98547,26.778,5.84,27.03a5.96551,5.96551,0,0,0-5.84,6v72.8a6.09277,6.09277,0,0,0,1.91,4.41A5.92866,5.92866,0,0,0,6.36,111.86ZM19.11,43.51A65.96613,65.96613,0,0,1,48,51.77,2.00692,2.00692,0,0,1,47,55.51a2.03089,2.03089,0,0,1-1-.27A62.0062,62.0062,0,0,0,18.89,47.5a1.998,1.998,0,1,1,.22-3.99Zm0,12A66.24035,66.24035,0,0,1,48,63.77,2.00692,2.00692,0,0,1,47,67.51a2.03089,2.03089,0,0,1-1-.27A62.0062,62.0062,0,0,0,18.89,59.5,1.99619,1.99619,0,0,1,17,57.39,2.0208,2.0208,0,0,1,19.11,55.51Zm0,12A66.24035,66.24035,0,0,1,48,75.77,2.00692,2.00692,0,0,1,47,79.51a2.03089,2.03089,0,0,1-1-.27,62.11011,62.11011,0,0,0-27.11-7.73,2.003,2.003,0,1,1,.22-4Zm0,12A66.13568,66.13568,0,0,1,48,87.78a1.99955,1.99955,0,0,1-1,3.73,1.93025,1.93025,0,0,1-1-.27,62.11011,62.11011,0,0,0-27.11-7.73,2.003,2.003,0,1,1,.22-4Zm0,12A66.13568,66.13568,0,0,1,48,99.78a2.00263,2.00263,0,0,1-2,3.47,62.00536,62.00536,0,0,0-27.11-7.74,2.003,2.003,0,1,1,.22-4Z"/></svg>
