<svg id="Capa_1" enable-background="new 0 0 512 512" height="512" viewBox="0 0 512 512" width="512" xmlns="http://www.w3.org/2000/svg"><g><path d="m476 40c-19.299 0-35 15.701-35 35v103.065c6.709 3.121 12.996 7.447 18.532 12.982 25.388 25.383 25.389 66.542.004 91.927l-56.674 56.674c-5.858 5.858-15.355 5.858-21.213 0s-5.858-15.355 0-21.213l56.673-56.673c13.669-13.669 13.668-35.831-.002-49.499-13.669-13.666-35.827-13.665-49.495.002l-84.146 84.15c-21.719 21.721-33.68 50.6-33.68 81.316l.001 134.269h125c8.284 0 15-6.716 15-15v-53.897c0-8.172 2.881-16.129 8.112-22.407l65.233-78.279c17.189-20.627 26.655-46.773 26.655-73.622v-193.795c0-19.299-15.701-35-35-35z"/><path d="m207.32 296.415-84.146-84.15c-13.667-13.667-35.826-13.668-49.495-.002-13.67 13.668-13.671 35.83-.002 49.499l56.673 56.673c5.858 5.858 5.858 15.355 0 21.213s-15.355 5.858-21.213 0l-56.674-56.674c-25.385-25.385-25.384-66.544.004-91.927 5.536-5.535 11.823-9.862 18.532-12.982l.001-103.065c0-19.299-15.701-35-35-35s-35 15.701-35 35v193.795c0 26.849 9.466 52.995 26.654 73.621l65.233 78.279c5.231 6.278 8.112 14.235 8.112 22.407v53.898c0 8.284 6.716 15 15 15h125v-134.27c.001-30.715-11.96-59.594-33.679-81.315z"/><path d="m361.964 22.311c-29.11-29.11-76.087-29.734-105.964-1.871-29.876-27.863-76.853-27.239-105.964 1.871-29.749 29.748-29.749 78.153 0 107.901l95.357 95.357c5.858 5.858 15.355 5.858 21.213 0l95.357-95.357c29.749-29.748 29.749-78.153.001-107.901z"/></g></svg>